# xmcd
#
# Track frame offsets:
#	150
#	17956
#	36657
#	52491
#	66393
#	79042
#	95403
#	112667
#	126850
#	144298
#	160869
#	183150
#	198084
#	211287
#	231090
#	246360
#	259599
#	273583
#
# Disc length: 3862 seconds
#
# Revision: 1
# Processed by: cddbd v1.5.1PL2 Copyright (c) Steve Scherf et al.
# Submitted via: EasyCDDAExtractor 9.0.0.1
#
DISCID=040f1412
DTITLE=Various Artist - CDX Volume 397
DYEAR=2006
DGENRE=Country
TTITLE0=Brooks and Dunn - Building Bridges
TTITLE1=Shooter Jennings - Gone To Carolina
TTITLE2=Clint Black - Heartaches
TTITLE3=Rhonda Vincent and Dolly Parton - Heartbreaker's Alibi
TTITLE4=Jack Ingram - Love You
TTITLE5=Heartland - I Loved Her First
TTITLE6=Lloyd Knoght - I'm Wishing I Was Home
TTITLE7=Con Hunley - That Old Clock
TTITLE8=Steve Azar - You Don't Know A Thing
TTITLE9=The Povertyneck - Mr. Right Now
TTITLE10=Michael Chain - Do You Want To Do It
TTITLE11=Jennifer LaMoss - Burn Your memory Down
TTITLE12=Stacy Burk - I'm Thinkin' Country
TTITLE13=Lisa Dames - Just Another Day
TTITLE14=Shane Keane - She's Got A Bad Attitude
TTITLE15=G. Bush - Wildlife Refuge
TTITLE16=Roy D Mercer - Firey Hayride
TTITLE17=Unknown artist - Wal Mart Woman
EXTD=
EXTT0=
EXTT1=
EXTT2=
EXTT3=
EXTT4=
EXTT5=
EXTT6=
EXTT7=
EXTT8=
EXTT9=
EXTT10=
EXTT11=
EXTT12=
EXTT13=
EXTT14=
EXTT15=
EXTT16=
EXTT17=
PLAYORDER=
